<svg width="20" height="16" viewBox="0 0 20 16" fill="none" xmlns="http://www.w3.org/2000/svg">
<path d="M7.49984 12.1668L9.99984 14.6668M9.99984 14.6668L12.4998 12.1668M9.99984 14.6668V8.8335M18.3332 5.50016H1.6665M4.58317 13.0002H4.33317C3.39975 13.0002 2.93304 13.0002 2.57652 12.8185C2.26292 12.6587 2.00795 12.4037 1.84816 12.0901C1.6665 11.7336 1.6665 11.2669 1.6665 10.3335V4.00016C1.6665 3.06674 1.6665 2.60003 1.84816 2.24351C2.00795 1.92991 2.26292 1.67494 2.57652 1.51515C2.93304 1.3335 3.39975 1.3335 4.33317 1.3335H15.6665C16.5999 1.3335 17.0666 1.3335 17.4232 1.51515C17.7368 1.67494 17.9917 1.92991 18.1515 2.24351C18.3332 2.60003 18.3332 3.06674 18.3332 4.00016V10.3335C18.3332 11.2669 18.3332 11.7336 18.1515 12.0901C17.9917 12.4038 17.7368 12.6587 17.4232 12.8185C17.0666 13.0002 16.5999 13.0002 15.6665 13.0002H15.4165" stroke="black" stroke-width="1.5" stroke-linecap="round" stroke-linejoin="round"/>
</svg>
