<svg width="20" height="18" viewBox="0 0 20 18" fill="none" xmlns="http://www.w3.org/2000/svg">
<path d="M13.3332 14L14.9998 15.6667L18.3332 12.3333M9.99984 11.5H6.6665C5.11337 11.5 4.3368 11.5 3.72423 11.7537C2.90747 12.092 2.25855 12.741 1.92024 13.5577C1.6665 14.1703 1.6665 14.9469 1.6665 16.5M12.9165 1.7423C14.1381 2.23679 14.9998 3.43443 14.9998 4.83333C14.9998 6.23224 14.1381 7.42988 12.9165 7.92437M11.2498 4.83333C11.2498 6.67428 9.75745 8.16667 7.9165 8.16667C6.07555 8.16667 4.58317 6.67428 4.58317 4.83333C4.58317 2.99238 6.07555 1.5 7.9165 1.5C9.75745 1.5 11.2498 2.99238 11.2498 4.83333Z" stroke="black" stroke-width="1.5" stroke-linecap="round" stroke-linejoin="round"/>
</svg>
