<svg width="22" height="21" viewBox="0 0 22 21" fill="none" xmlns="http://www.w3.org/2000/svg">
<path d="M17.7865 6.85582V16.3268C17.7828 17.1587 17.4526 17.9554 16.8678 18.5436C16.283 19.1319 15.491 19.464 14.6639 19.4677H4.62259C3.79534 19.4647 3.00283 19.1329 2.41787 18.5445C1.83291 17.9561 1.50297 17.1589 1.5 16.3268V6.85582C1.50238 6.14504 1.74371 5.45598 2.18477 4.90065C2.62582 4.34532 3.24066 3.95639 3.92931 3.7971C4.15618 3.74119 4.38902 3.71358 4.62259 3.71489H14.6639C15.4912 3.71788 16.2837 4.04975 16.8687 4.63815C17.4536 5.22654 17.7836 6.02371 17.7865 6.85582Z" stroke="#1F1F1F" stroke-width="1.5" stroke-miterlimit="10"/>
<path d="M17.9913 16.7193V16.7193C19.3769 16.7193 20.5001 15.596 20.5001 14.2105C20.5001 13.9837 20.5001 13.7868 20.5001 13.6455C20.5001 10.6763 20.498 7.70702 20.4982 4.73778C20.4984 2.66387 18.8166 0.982159 16.7427 0.982369C13.6992 0.982678 10.7106 0.980495 6.93306 0.980482C6.77161 0.980482 6.59846 0.980481 6.41933 0.98048C4.93708 0.980475 3.73536 2.18207 3.73535 3.66433V3.66433" stroke="#1F1F1F" stroke-width="1.5" stroke-miterlimit="10"/>
</svg>
